<svg width="352" height="104" viewBox="0 0 352 104" fill="none" xmlns="http://www.w3.org/2000/svg">
<path d="M44.571 94.9821H42.0306C41.4328 94.9821 40.9472 94.8354 40.6109 94.5422C40.2747 94.2489 40.0879 93.8457 40.0879 93.2958V88.2369C40.0879 87.7237 40.2747 87.2838 40.6109 86.9905C40.9472 86.6973 41.4328 86.5506 42.0306 86.5506H44.571C45.2061 86.5506 45.6544 86.6973 45.9907 86.9905C46.3269 87.2838 46.5137 87.687 46.5137 88.2369V88.9701H45.8786V88.2369C45.8786 87.8703 45.7665 87.5771 45.5424 87.3571C45.3182 87.1372 44.982 87.0272 44.571 87.0272H42.0306C41.6196 87.0272 41.2834 87.1372 41.0592 87.3571C40.8351 87.5771 40.723 87.8703 40.723 88.2369V93.2958C40.723 93.6624 40.8351 93.9556 41.0592 94.1756C41.2834 94.3955 41.6196 94.4689 42.0306 94.4689H44.571C44.982 94.4689 45.3182 94.3589 45.5424 94.1756C45.7665 93.9556 45.8786 93.6624 45.8786 93.2958V92.5626H46.5137V93.2958C46.5137 93.809 46.3269 94.2489 45.9907 94.5422C45.6544 94.8354 45.2061 94.9821 44.571 94.9821ZM50.1002 88.6768C49.5025 88.6768 49.0541 88.8235 48.7179 89.1167C48.3817 89.41 48.2322 89.8132 48.2322 90.2898V93.3691C48.2322 93.8823 48.3817 94.2856 48.7179 94.5422C49.0541 94.8354 49.5025 94.9821 50.1002 94.9821H51.8561C52.4538 94.9821 52.9022 94.8354 53.2384 94.5422C53.5746 94.2489 53.7241 93.8457 53.7241 93.3691V90.2898C53.7241 89.7766 53.5746 89.3733 53.2384 89.1167C52.9022 88.8235 52.4538 88.6768 51.8561 88.6768H50.1002ZM53.1263 93.3691C53.1263 93.7357 53.0142 93.9923 52.7901 94.2122C52.5659 94.4322 52.267 94.5422 51.8561 94.5422H50.1002C49.6892 94.5422 49.3904 94.4322 49.1662 94.2122C48.9421 93.9923 48.83 93.7357 48.83 93.3691V90.2898C48.83 89.9232 48.9421 89.6666 49.1662 89.4466C49.3904 89.2267 49.6892 89.1167 50.1002 89.1167H51.8561C52.267 89.1167 52.5659 89.2267 52.7901 89.4466C53.0142 89.6666 53.1263 89.9232 53.1263 90.2898V93.3691ZM62.8397 88.6768C62.3541 88.6768 61.8684 88.7868 61.4201 89.0434L60.4487 89.6299C60.1872 88.9701 59.5895 88.6768 58.6929 88.6768H58.394C57.871 88.6768 57.3853 88.7868 56.9743 89.0434L56.1151 89.5933V88.7135H55.5173V94.9454H56.1151V89.9232L56.9743 89.4833C57.4974 89.2267 57.983 89.1167 58.394 89.1167H58.6929C59.1038 89.1167 59.4027 89.2267 59.6268 89.4466C59.851 89.6666 59.9631 89.9599 59.9631 90.2898V94.9454H60.5608V90.2898C60.5608 90.2531 60.5608 90.1432 60.5235 89.9599L61.4201 89.4833C61.9058 89.2267 62.3914 89.1167 62.8397 89.1167H63.1386C63.5496 89.1167 63.8484 89.2267 64.0726 89.4466C64.2968 89.6666 64.4088 89.9599 64.4088 90.2898V94.9454H65.0066V90.2898C65.0066 89.7766 64.8571 89.3733 64.5209 89.1167C64.1847 88.8235 63.7364 88.6768 63.1386 88.6768H62.8397ZM69.6765 88.6768C69.1535 88.6768 68.6678 88.7868 68.2569 89.0434L67.3976 89.5933V88.7135H66.7998V97.1449H67.3976V94.1023L68.2569 94.6521C68.6678 94.9088 69.1535 95.0187 69.6765 95.0187H70.4611C71.0588 95.0187 71.5071 94.8721 71.8434 94.5788C72.1796 94.2856 72.329 93.8823 72.329 93.4058V90.3264C72.329 89.8132 72.1796 89.41 71.8434 89.1534C71.5071 88.8601 71.0588 88.7135 70.4611 88.7135H69.6765M71.7313 93.3691C71.7313 93.7357 71.6192 93.9923 71.395 94.2122C71.1709 94.4322 70.8347 94.5422 70.4611 94.5422H69.6765C69.2656 94.5422 68.7799 94.4322 68.2569 94.1756L67.3976 93.7357V89.9599L68.2569 89.52C68.7799 89.2634 69.2656 89.1534 69.6765 89.1534H70.4611C70.872 89.1534 71.1709 89.2634 71.395 89.4833C71.6192 89.7033 71.7313 89.9965 71.7313 90.3264V93.3691ZM75.9529 88.6768C75.3551 88.6768 74.9068 88.8235 74.5706 89.1167C74.2344 89.41 74.0849 89.7766 74.0849 90.2898V90.3264H74.6827V90.2898C74.6827 89.9232 74.7947 89.6666 75.0189 89.4466C75.2431 89.2267 75.5419 89.1534 75.9529 89.1534H77.4846C77.8956 89.1534 78.1944 89.2634 78.4186 89.4466C78.6428 89.6666 78.7548 89.9232 78.7548 90.2898V91.4262C77.7088 91.3162 76.8121 91.2429 76.1023 91.2429H75.7287C75.131 91.2429 74.6827 91.3895 74.3464 91.6828C74.0102 91.9761 73.8608 92.3793 73.8608 92.8559V93.3691C73.8608 93.8823 74.0102 94.2856 74.3464 94.5422C74.6827 94.8354 75.131 94.9821 75.7287 94.9821H76.4386C76.9989 94.9821 77.4846 94.8721 77.8956 94.6155L78.7548 94.0656V94.9454H79.3526V90.2531C79.3526 89.7399 79.2032 89.3367 78.8669 89.0801C78.5307 88.7868 78.0824 88.6402 77.4846 88.6402H75.9529M78.7548 93.7357L77.8956 94.1756C77.3725 94.4322 76.8869 94.5422 76.4386 94.5422H75.7287C75.3178 94.5422 75.0189 94.4322 74.7947 94.2122C74.5706 93.9923 74.4585 93.7357 74.4585 93.3691V92.8559C74.4585 92.526 74.5706 92.2327 74.7947 92.0127C75.0189 91.7928 75.3178 91.6828 75.7287 91.6828H78.7548V93.7357ZM86.5256 94.9454V90.2898C86.5256 89.7766 86.3761 89.3733 86.0399 89.1167C85.7037 88.8235 85.2554 88.6768 84.6576 88.6768H84.0599C83.5368 88.6768 83.0512 88.7868 82.6402 89.0434L81.7809 89.5933V88.7135H81.1832V94.9454H81.7809V89.9232L82.6402 89.4833C83.1632 89.2267 83.6489 89.1167 84.0599 89.1167H84.6576C85.0686 89.1167 85.3674 89.2267 85.5916 89.4466C85.8158 89.6666 85.9278 89.9232 85.9278 90.2898V94.9454H86.5256ZM84.6203 87.8703C85.0312 88.0536 85.2927 87.9436 85.4048 87.5771L85.7037 86.6239H85.218L84.9191 87.5037L82.9391 86.6239C82.5281 86.4407 82.2666 86.5506 82.1545 86.9539L81.893 87.8703H82.3787L82.6776 86.9539L84.6203 87.8703ZM90.1868 86.2207H89.3649L88.1694 87.8703H88.543L90.1868 86.2207ZM88.9166 88.7135H88.3188V94.9454H88.9166V88.7135ZM92.6525 88.6768C92.0548 88.6768 91.6065 88.8235 91.2702 89.1167C90.934 89.41 90.7846 89.7766 90.7846 90.2898V90.3264H91.3823V90.2898C91.3823 89.9232 91.4944 89.6666 91.7185 89.4466C91.9427 89.2267 92.2416 89.1534 92.6525 89.1534H94.1843C94.5952 89.1534 94.8941 89.2634 95.1182 89.4466C95.3424 89.6666 95.4545 89.9232 95.4545 90.2898V91.4262C94.4084 91.3162 93.5118 91.2429 92.802 91.2429H92.4284C91.8306 91.2429 91.3823 91.3895 91.0461 91.6828C90.7098 91.9761 90.5604 92.3793 90.5604 92.8559V93.3691C90.5604 93.8823 90.7098 94.2856 91.0461 94.5422C91.3823 94.8354 91.8306 94.9821 92.4284 94.9821H93.1382C93.6986 94.9821 94.1843 94.8721 94.5952 94.6155L95.4545 94.0656V94.9454H96.0522V90.2531C96.0522 89.7399 95.9028 89.3367 95.5666 89.0801C95.2303 88.7868 94.782 88.6402 94.1843 88.6402H92.6525M95.4545 93.7357L94.5952 94.1756C94.0722 94.4322 93.5865 94.5422 93.1382 94.5422H92.4284C92.0174 94.5422 91.7185 94.4322 91.4944 94.2122C91.2702 93.9923 91.1581 93.7357 91.1581 93.3691V92.8559C91.1581 92.526 91.2702 92.2327 91.4944 92.0127C91.7185 91.7928 92.0174 91.6828 92.4284 91.6828H95.4545V93.7357Z" fill="white"/>
<path d="M106.362 94.9822H103.822C103.224 94.9822 102.738 94.8355 102.402 94.5423C102.066 94.249 101.879 93.8458 101.879 93.2959V88.237C101.879 87.7238 102.066 87.2839 102.402 86.9906C102.738 86.6974 103.224 86.5507 103.822 86.5507H106.362C106.997 86.5507 107.445 86.6974 107.782 86.9906C108.118 87.2839 108.305 87.6871 108.305 88.237V88.9702H107.67V88.237C107.67 87.8704 107.558 87.5772 107.333 87.3572C107.109 87.1373 106.773 87.0273 106.362 87.0273H103.822C103.411 87.0273 103.074 87.1373 102.85 87.3572C102.626 87.5772 102.514 87.8704 102.514 88.237V93.2959C102.514 93.6625 102.626 93.9557 102.85 94.1757C103.074 94.3956 103.411 94.4689 103.822 94.4689H106.362C106.773 94.4689 107.109 94.359 107.333 94.1757C107.558 93.9557 107.67 93.6625 107.67 93.2959V92.5627H108.305V93.2959C108.305 93.8091 108.118 94.249 107.782 94.5423C107.445 94.8355 106.96 94.9822 106.362 94.9822ZM111.891 88.6769C111.293 88.6769 110.845 88.8235 110.509 89.1168C110.173 89.4101 110.023 89.8133 110.023 90.2899V93.3692C110.023 93.8824 110.173 94.2856 110.509 94.5423C110.845 94.8355 111.293 94.9822 111.891 94.9822H113.647C114.245 94.9822 114.693 94.8355 115.029 94.5423C115.366 94.249 115.515 93.8457 115.515 93.3692V90.2899C115.515 89.7767 115.366 89.3734 115.029 89.1168C114.693 88.8235 114.245 88.6769 113.647 88.6769H111.891ZM114.917 93.3692C114.917 93.7358 114.805 93.9924 114.581 94.2123C114.357 94.4323 114.058 94.5423 113.647 94.5423H111.891C111.48 94.5423 111.181 94.4323 110.957 94.2123C110.733 93.9924 110.621 93.7358 110.621 93.3692V90.2899C110.621 89.9233 110.733 89.6667 110.957 89.4467C111.181 89.2268 111.48 89.1168 111.891 89.1168H113.647C114.058 89.1168 114.357 89.2268 114.581 89.4467C114.805 89.6667 114.917 89.9233 114.917 90.2899V93.3692ZM117.308 94.9455H117.869V86.3674H117.308V94.9455ZM121.493 88.6769C120.895 88.6769 120.447 88.8235 120.11 89.1168C119.774 89.4101 119.625 89.8133 119.625 90.2899V93.3692C119.625 93.8824 119.774 94.2856 120.11 94.5423C120.447 94.8355 120.895 94.9822 121.493 94.9822H123.248C123.846 94.9822 124.295 94.8355 124.631 94.5423C124.967 94.249 125.116 93.8457 125.116 93.3692V90.2899C125.116 89.7767 124.967 89.3734 124.631 89.1168C124.295 88.8235 123.846 88.6769 123.248 88.6769H121.493ZM124.556 93.3692C124.556 93.7358 124.444 93.9924 124.22 94.2123C123.996 94.4323 123.697 94.5423 123.286 94.5423H121.53C121.119 94.5423 120.82 94.4323 120.596 94.2123C120.372 93.9924 120.26 93.7358 120.26 93.3692V90.2899C120.26 89.9233 120.372 89.6667 120.596 89.4467C120.82 89.2268 121.119 89.1168 121.53 89.1168H123.286C123.697 89.1168 123.996 89.2268 124.22 89.4467C124.444 89.6667 124.556 89.9233 124.556 90.2899V93.3692ZM134.232 88.6769C133.746 88.6769 133.261 88.7869 132.812 89.0435L131.841 89.63C131.58 88.9702 130.982 88.6769 130.085 88.6769H129.786C129.263 88.6769 128.778 88.7869 128.367 89.0435L127.507 89.5934V88.7136H126.91V94.9455H127.507V89.9233L128.367 89.4834C128.89 89.2268 129.375 89.1168 129.786 89.1168H130.085C130.496 89.1168 130.795 89.2268 131.019 89.4467C131.243 89.6667 131.355 89.96 131.355 90.2899V94.9455H131.953V90.2899C131.953 90.2532 131.953 90.1432 131.916 89.96L132.812 89.4834C133.298 89.2268 133.784 89.1168 134.232 89.1168H134.531C134.942 89.1168 135.241 89.2268 135.465 89.4467C135.689 89.6667 135.801 89.96 135.801 90.2899V94.9455H136.399V90.2899C136.399 89.7767 136.25 89.3734 135.913 89.1168C135.577 88.8235 135.129 88.6769 134.531 88.6769H134.232ZM141.069 88.6769C140.546 88.6769 140.06 88.7869 139.649 89.0435L138.79 89.5934V86.3674H138.192V94.9455H138.79V94.0657L139.649 94.6156C140.06 94.8722 140.546 94.9822 141.069 94.9822H141.853C142.451 94.9822 142.899 94.8355 143.236 94.5423C143.572 94.249 143.721 93.8457 143.721 93.3692V90.2899C143.721 89.7767 143.572 89.3734 143.236 89.1168C142.899 88.8235 142.451 88.6769 141.853 88.6769H141.069ZM143.161 93.3692C143.161 93.7358 143.049 93.9924 142.825 94.2123C142.601 94.4323 142.264 94.5423 141.891 94.5423H141.106C140.695 94.5423 140.21 94.4323 139.687 94.1757L138.827 93.7358V89.96L139.687 89.5201C140.21 89.2634 140.695 89.1535 141.106 89.1535H141.891C142.302 89.1535 142.601 89.2634 142.825 89.4834C143.049 89.7033 143.161 89.9966 143.161 90.3265V93.3692ZM146.15 86.3674H145.403V87.2106H146.15V86.3674ZM146.075 88.7136H145.477V94.9455H146.075V88.7136ZM149.811 88.6769C149.213 88.6769 148.765 88.8235 148.429 89.1168C148.092 89.4101 147.943 89.7767 147.943 90.2899V90.3265H148.541V90.2899C148.541 89.9233 148.653 89.6667 148.877 89.4467C149.101 89.2268 149.4 89.1535 149.811 89.1535H151.343C151.754 89.1535 152.053 89.2634 152.277 89.4467C152.501 89.6667 152.613 89.9233 152.613 90.2899V91.4263C151.567 91.3163 150.67 91.243 149.96 91.243H149.587C148.989 91.243 148.541 91.3896 148.205 91.6829C147.868 91.9762 147.719 92.3794 147.719 92.856V93.3692C147.719 93.8824 147.868 94.2856 148.205 94.5423C148.541 94.8355 148.989 94.9822 149.587 94.9822H150.297C150.857 94.9822 151.343 94.8722 151.754 94.6156L152.613 94.0657V94.9455H153.211V90.2532C153.211 89.74 153.061 89.3368 152.725 89.0802C152.389 88.7869 151.94 88.6403 151.343 88.6403H149.811M152.613 93.7358L151.754 94.1757C151.231 94.4323 150.745 94.5423 150.297 94.5423H149.587C149.176 94.5423 148.877 94.4323 148.653 94.2123C148.429 93.9924 148.317 93.7358 148.317 93.3692V92.856C148.317 92.526 148.429 92.2328 148.653 92.0128C148.877 91.7929 149.176 91.6829 149.587 91.6829H152.613V93.7358ZM160.384 94.9455V90.2899C160.384 89.7767 160.234 89.3734 159.898 89.1168C159.562 88.8235 159.113 88.6769 158.516 88.6769H157.918C157.395 88.6769 156.909 88.7869 156.498 89.0435L155.639 89.5934V88.7136H155.041V94.9455H155.639V89.9233L156.498 89.4834C157.021 89.2268 157.507 89.1168 157.918 89.1168H158.516C158.927 89.1168 159.226 89.2268 159.45 89.4467C159.674 89.6667 159.786 89.96 159.786 90.2899V94.9455H160.384ZM164.045 88.6769C163.447 88.6769 162.999 88.8235 162.663 89.1168C162.326 89.4101 162.177 89.7767 162.177 90.2899V90.3265H162.775V90.2899C162.775 89.9233 162.887 89.6667 163.111 89.4467C163.335 89.2268 163.634 89.1535 164.045 89.1535H165.577C165.988 89.1535 166.286 89.2634 166.511 89.4467C166.735 89.6667 166.847 89.9233 166.847 90.2899V91.4263C165.801 91.3163 164.904 91.243 164.194 91.243H163.821C163.223 91.243 162.775 91.3896 162.438 91.6829C162.102 91.9762 161.953 92.3794 161.953 92.856V93.3692C161.953 93.8824 162.102 94.2856 162.438 94.5423C162.775 94.8355 163.223 94.9822 163.821 94.9822H164.531C165.091 94.9822 165.577 94.8722 165.988 94.6156L166.847 94.0657V94.9455H167.445V90.2532C167.445 89.74 167.295 89.3368 166.959 89.0802C166.623 88.7869 166.174 88.6403 165.577 88.6403H164.045M166.847 93.7358L165.988 94.1757C165.465 94.4323 164.979 94.5423 164.531 94.5423H163.821C163.41 94.5423 163.111 94.4323 162.887 94.2123C162.663 93.9924 162.551 93.7358 162.551 93.3692V92.856C162.551 92.526 162.663 92.2328 162.887 92.0128C163.111 91.7929 163.41 91.6829 163.821 91.6829H166.847V93.7358Z" fill="white"/>
<path d="M178.578 94.9455H177.98V94.0657L177.121 94.6156C176.71 94.8722 176.224 94.9822 175.701 94.9822H174.917C174.319 94.9822 173.871 94.8355 173.534 94.5423C173.198 94.249 173.049 93.8457 173.049 93.3692V90.2899C173.049 89.7767 173.198 89.3734 173.534 89.1168C173.871 88.8235 174.319 88.6769 174.917 88.6769H175.701C176.224 88.6769 176.71 88.7869 177.121 89.0435L177.98 89.5934V86.3674H178.578V94.9455ZM177.98 89.9233L177.121 89.4834C176.598 89.2268 176.112 89.1168 175.701 89.1168H174.917C174.506 89.1168 174.207 89.2268 173.983 89.4467C173.759 89.6667 173.647 89.96 173.647 90.2899V93.3692C173.647 93.7358 173.759 93.9924 173.983 94.2123C174.207 94.4323 174.543 94.5423 174.917 94.5423H175.701C176.112 94.5423 176.598 94.4323 177.121 94.1757L177.98 93.7358V89.9233ZM180.894 91.9029V93.3692C180.894 93.6991 181.006 93.9924 181.231 94.2123C181.455 94.4323 181.754 94.5423 182.165 94.5423H183.846C184.257 94.5423 184.556 94.4323 184.78 94.2123C185.004 93.9924 185.116 93.7358 185.116 93.3692V93.0026H185.714V93.3692C185.714 93.8824 185.564 94.2856 185.228 94.5423C184.892 94.8355 184.443 94.9822 183.846 94.9822H182.165C181.567 94.9822 181.118 94.8355 180.782 94.5423C180.446 94.249 180.297 93.8457 180.297 93.3692V90.2899C180.297 89.7767 180.446 89.3734 180.782 89.1168C181.118 88.8235 181.567 88.6769 182.165 88.6769H183.846C184.443 88.6769 184.892 88.8235 185.228 89.1168C185.564 89.4101 185.714 89.8133 185.714 90.2899V91.9029H180.894ZM183.846 89.1535H182.165C181.754 89.1535 181.455 89.2634 181.231 89.4834C181.006 89.7033 180.894 89.96 180.894 90.3265V91.463H185.153V90.3265C185.153 89.9966 185.041 89.7033 184.817 89.4834C184.593 89.2268 184.257 89.1535 183.846 89.1535Z" fill="white"/>
<path d="M197.519 87.907H194.866V94.9454H193.26V87.907H190.607V86.6239H197.482V87.907H197.519ZM203.048 92.196V90.2531C203.048 89.7765 202.861 89.3733 202.525 89.08C202.189 88.7868 201.741 88.6401 201.18 88.6401H199.088C198.528 88.6401 198.079 88.7868 197.743 89.08C197.407 89.3733 197.22 89.7765 197.22 90.2531V93.3324C197.22 93.809 197.407 94.2122 197.743 94.5055C198.079 94.7987 198.528 94.9454 199.088 94.9454H201.18C201.741 94.9454 202.189 94.7987 202.525 94.5055C202.861 94.2122 203.048 93.809 203.048 93.3324V92.9292H201.516V93.2957C201.516 93.4424 201.479 93.589 201.367 93.699C201.255 93.809 201.105 93.8456 200.919 93.8456H199.35C199.163 93.8456 199.013 93.809 198.901 93.699C198.789 93.589 198.752 93.479 198.752 93.2957V92.1593H203.048V92.196ZM200.919 89.7765C201.105 89.7765 201.255 89.8132 201.367 89.9232C201.479 90.0331 201.516 90.1431 201.516 90.3264V91.2429H198.752V90.3264C198.752 90.1798 198.789 90.0331 198.901 89.9232C199.013 89.8132 199.163 89.7765 199.35 89.7765H200.919ZM204.356 94.9454H205.887V86.2573H204.356V94.9454ZM213.098 92.196V90.2531C213.098 89.7765 212.911 89.3733 212.575 89.08C212.238 88.7868 211.79 88.6401 211.23 88.6401H209.138C208.577 88.6401 208.129 88.7868 207.793 89.08C207.456 89.3733 207.27 89.7765 207.27 90.2531V93.3324C207.27 93.809 207.456 94.2122 207.793 94.5055C208.129 94.7987 208.577 94.9454 209.138 94.9454H211.23C211.79 94.9454 212.238 94.7987 212.575 94.5055C212.911 94.2122 213.098 93.809 213.098 93.3324V92.9292H211.566V93.2957C211.566 93.4424 211.529 93.589 211.417 93.699C211.305 93.809 211.155 93.8456 210.968 93.8456H209.399C209.212 93.8456 209.063 93.809 208.951 93.699C208.839 93.589 208.801 93.479 208.801 93.2957V92.1593H213.098V92.196ZM210.931 89.7765C211.118 89.7765 211.267 89.8132 211.379 89.9232C211.491 90.0331 211.529 90.1431 211.529 90.3264V91.2429H208.764V90.3264C208.764 90.1798 208.801 90.0331 208.914 89.9232C209.026 89.8132 209.175 89.7765 209.362 89.7765H210.931ZM218.179 94.982C218.739 94.982 219.187 94.8354 219.524 94.5421C219.86 94.2489 220.047 93.8456 220.047 93.3691V92.7825H218.552V93.3324C218.552 93.479 218.477 93.6257 218.403 93.699C218.291 93.809 218.141 93.8456 217.954 93.8456H216.423C216.236 93.8456 216.086 93.809 215.974 93.699C215.862 93.589 215.825 93.479 215.825 93.2957V90.3264C215.825 90.1798 215.862 90.0331 215.974 89.9232C216.086 89.8132 216.236 89.7765 216.423 89.7765H217.954C218.141 89.7765 218.291 89.8132 218.403 89.9232C218.515 90.0331 218.552 90.1431 218.552 90.2898V90.8396H220.084V90.2531C220.084 89.7765 219.897 89.3733 219.561 89.08C219.225 88.7868 218.776 88.6401 218.216 88.6401H216.161C215.601 88.6401 215.153 88.7868 214.816 89.08C214.48 89.3733 214.293 89.7765 214.293 90.2531V93.3324C214.293 93.809 214.48 94.2122 214.816 94.5055C215.153 94.7987 215.601 94.9454 216.161 94.9454H218.179M223.11 88.6768C222.55 88.6768 222.101 88.8234 221.765 89.1167C221.429 89.41 221.242 89.8132 221.242 90.2898V93.3691C221.242 93.8456 221.429 94.2489 221.765 94.5421C222.101 94.8354 222.55 94.982 223.11 94.982H225.314C225.875 94.982 226.323 94.8354 226.659 94.5421C226.995 94.2489 227.182 93.8456 227.182 93.3691V90.2898C227.182 89.8132 226.995 89.41 226.659 89.1167C226.323 88.8234 225.875 88.6768 225.314 88.6768H223.11ZM225.651 93.3324C225.651 93.479 225.613 93.6257 225.501 93.7356C225.389 93.8456 225.24 93.8823 225.053 93.8823H223.409C223.222 93.8823 223.073 93.8456 222.961 93.7356C222.849 93.6257 222.811 93.5157 222.811 93.3324V90.3631C222.811 90.2164 222.849 90.0698 222.961 89.9598C223.073 89.8498 223.222 89.8132 223.409 89.8132H225.053C225.24 89.8132 225.389 89.8498 225.501 89.9598C225.613 90.0698 225.651 90.1798 225.651 90.3631V93.3324ZM236.036 88.6768C235.551 88.6768 235.065 88.8601 234.542 89.2267L233.982 89.6299C233.87 89.3366 233.645 89.08 233.309 88.8967C233.01 88.7134 232.637 88.6401 232.226 88.6401H231.964C231.479 88.6401 230.993 88.8234 230.47 89.19L230.059 89.4833V88.7134H228.527V94.9454H230.059V90.3997L230.47 90.1798C230.918 89.9598 231.366 89.8499 231.852 89.8499H231.964C232.151 89.8499 232.3 89.8865 232.413 89.9965C232.525 90.1065 232.562 90.2164 232.562 90.3997V94.9454H234.094V90.3997L234.505 90.1798C234.916 89.9598 235.364 89.8499 235.887 89.8499H235.999C236.186 89.8499 236.335 89.8865 236.447 89.9965C236.559 90.1065 236.597 90.2164 236.597 90.3997V94.9454H238.129V90.2898C238.129 89.8132 237.942 89.41 237.606 89.1167C237.269 88.8234 236.821 88.6768 236.261 88.6768H236.036ZM239.511 88.7134V93.3691C239.511 93.8456 239.698 94.2489 240.034 94.5421C240.37 94.8354 240.818 94.982 241.379 94.982H241.864C242.35 94.982 242.836 94.7987 243.359 94.4322L243.77 94.1389V94.9454H245.302V88.7134H243.77V93.2591L243.359 93.479C242.948 93.699 242.462 93.809 241.977 93.809H241.64C241.454 93.809 241.304 93.7723 241.192 93.6623C241.08 93.5524 241.043 93.4424 241.043 93.2591V88.7134H239.511ZM252.624 94.9454V90.2898C252.624 89.8132 252.437 89.41 252.101 89.1167C251.765 88.8234 251.316 88.6768 250.756 88.6768H250.27C249.785 88.6768 249.299 88.8601 248.776 89.2267L248.365 89.5199V88.7134H246.833V94.9454H248.365V90.3997L248.776 90.1798C249.224 89.9598 249.673 89.8499 250.158 89.8499H250.494C250.681 89.8499 250.831 89.8865 250.943 89.9965C251.055 90.1065 251.092 90.2164 251.092 90.3997V94.9454H252.624ZM255.613 86.2573H253.969V87.6137H255.613V86.2573ZM255.575 88.7134H254.044V94.9454H255.575V88.7134ZM260.806 94.982C261.366 94.982 261.814 94.8354 262.151 94.5421C262.487 94.2489 262.674 93.8456 262.674 93.3691V92.7825H261.142V93.3324C261.142 93.479 261.067 93.6257 260.992 93.699C260.88 93.809 260.731 93.8456 260.544 93.8456H259.012C258.826 93.8456 258.676 93.809 258.564 93.699C258.452 93.589 258.415 93.479 258.415 93.2957V90.3264C258.415 90.1798 258.452 90.0331 258.564 89.9232C258.676 89.8132 258.826 89.7765 259.012 89.7765H260.544C260.731 89.7765 260.88 89.8132 260.992 89.9232C261.105 90.0331 261.142 90.1431 261.142 90.2898V90.8396H262.674V90.2531C262.674 89.7765 262.487 89.3733 262.151 89.08C261.814 88.7868 261.366 88.6401 260.806 88.6401H258.751C258.191 88.6401 257.742 88.7868 257.406 89.08C257.07 89.3733 256.883 89.7765 256.883 90.2531V93.3324C256.883 93.809 257.07 94.2122 257.406 94.5055C257.742 94.7987 258.191 94.9454 258.751 94.9454H260.806M265.961 88.6768C265.401 88.6768 264.953 88.8234 264.579 89.1533C264.205 89.4466 264.056 89.8498 264.056 90.3264V90.5464H265.588V90.3631C265.588 90.2164 265.625 90.0698 265.737 89.9598C265.849 89.8498 265.999 89.8132 266.185 89.8132H267.568C267.755 89.8132 267.904 89.8498 267.979 89.9598C268.091 90.0698 268.128 90.1798 268.128 90.3631V91.3895C267.344 91.2429 266.634 91.1696 265.999 91.1696H265.662C265.065 91.1696 264.616 91.3162 264.28 91.6095C263.944 91.9027 263.794 92.306 263.794 92.7825V93.3691C263.794 93.8456 263.981 94.2489 264.317 94.5421C264.654 94.8354 265.102 94.982 265.662 94.982H266.26C266.708 94.982 267.194 94.7987 267.717 94.4322L268.128 94.1389V94.9454H269.66V90.3264C269.66 89.8498 269.473 89.4466 269.099 89.1533C268.726 88.8234 268.278 88.6768 267.717 88.6768H265.961ZM268.128 93.2591L267.717 93.479C267.306 93.699 266.858 93.809 266.372 93.809H265.924C265.737 93.809 265.588 93.7723 265.476 93.6623C265.364 93.5524 265.326 93.4424 265.326 93.2591V92.6726C265.326 92.5259 265.364 92.3793 265.476 92.2693C265.588 92.1593 265.737 92.1227 265.924 92.1227H268.128V93.2591ZM274.853 94.982C275.413 94.982 275.861 94.8354 276.198 94.5421C276.534 94.2489 276.721 93.8456 276.721 93.3691V92.7825H275.189V93.3324C275.189 93.479 275.114 93.6257 275.04 93.699C274.928 93.809 274.778 93.8456 274.591 93.8456H273.097C272.91 93.8456 272.761 93.809 272.649 93.699C272.537 93.589 272.499 93.479 272.499 93.2957V90.3264C272.499 90.1798 272.537 90.0331 272.649 89.9232C272.761 89.8132 272.91 89.7765 273.097 89.7765H274.629C274.815 89.7765 274.965 89.8132 275.077 89.9232C275.189 90.0331 275.226 90.1431 275.226 90.2898V90.8396H276.758V90.2531C276.758 89.7765 276.571 89.3733 276.235 89.08C275.899 88.7868 275.451 88.6401 274.89 88.6401H272.835C272.275 88.6401 271.827 88.7868 271.49 89.08C271.154 89.3733 270.967 89.7765 270.967 90.2531V93.3324C270.967 93.809 271.154 94.2122 271.49 94.5055C271.827 94.7987 272.275 94.9454 272.835 94.9454H274.853M279.635 86.2573H277.954V87.6137H279.597V86.2573H279.635ZM279.56 88.7134H278.028V94.9454H279.56V88.7134ZM282.773 88.6768C282.213 88.6768 281.764 88.8234 281.428 89.1167C281.092 89.41 280.905 89.8132 280.905 90.2898V93.3691C280.905 93.8456 281.092 94.2489 281.428 94.5421C281.764 94.8354 282.213 94.982 282.773 94.982H284.94C285.5 94.982 285.949 94.8354 286.285 94.5421C286.621 94.2489 286.808 93.8456 286.808 93.3691V90.2898C286.808 89.8132 286.621 89.41 286.285 89.1167C285.949 88.8234 285.5 88.6768 284.94 88.6768H282.773ZM285.276 93.3324C285.276 93.479 285.239 93.6257 285.127 93.7356C285.015 93.8456 284.865 93.8823 284.678 93.8823H283.034C282.848 93.8823 282.698 93.8456 282.586 93.7356C282.474 93.6257 282.437 93.5157 282.437 93.3324V90.3631C282.437 90.2164 282.474 90.0698 282.586 89.9598C282.698 89.8498 282.848 89.8132 283.034 89.8132H284.678C284.865 89.8132 285.015 89.8498 285.127 89.9598C285.239 90.0698 285.276 90.1798 285.276 90.3631V93.3324ZM293.981 94.9454V90.2898C293.981 89.8132 293.794 89.41 293.458 89.1167C293.122 88.8234 292.673 88.6768 292.113 88.6768H291.627C291.141 88.6768 290.656 88.8601 290.133 89.2267L289.722 89.5199V88.7134H288.19V94.9454H289.722V90.3997L290.133 90.1798C290.581 89.9598 291.029 89.8499 291.515 89.8499H291.851C292.038 89.8499 292.188 89.8865 292.3 89.9965C292.412 90.1065 292.449 90.2164 292.449 90.3997V94.9454H293.981ZM301.116 92.196V90.2531C301.116 89.7765 300.93 89.3733 300.593 89.08C300.257 88.7868 299.809 88.6401 299.248 88.6401H297.156C296.596 88.6401 296.148 88.7868 295.811 89.08C295.475 89.3733 295.288 89.7765 295.288 90.2531V93.3324C295.288 93.809 295.475 94.2122 295.811 94.5055C296.148 94.7987 296.596 94.9454 297.156 94.9454H299.248C299.809 94.9454 300.257 94.7987 300.593 94.5055C300.93 94.2122 301.116 93.809 301.116 93.3324V92.9292H299.585V93.2957C299.585 93.4424 299.547 93.589 299.435 93.699C299.323 93.809 299.174 93.8456 298.987 93.8456H297.418C297.231 93.8456 297.082 93.809 296.97 93.699C296.857 93.589 296.82 93.479 296.82 93.2957V92.1593H301.116V92.196ZM298.95 89.7765C299.136 89.7765 299.286 89.8132 299.398 89.9232C299.51 90.0331 299.547 90.1431 299.547 90.3264V91.2429H296.783V90.3264C296.783 90.1798 296.82 90.0331 296.932 89.9232C297.044 89.8132 297.194 89.7765 297.38 89.7765H298.95ZM307.841 90.583V90.2531C307.841 89.7765 307.654 89.41 307.318 89.1167C306.982 88.8234 306.534 88.6768 306.01 88.6768H304.143C303.582 88.6768 303.171 88.8234 302.798 89.1167C302.461 89.41 302.275 89.7765 302.275 90.2531V90.8396C302.275 91.5728 302.798 92.0494 303.844 92.196L305.898 92.4893C306.272 92.5259 306.459 92.6726 306.459 92.9292V93.3691C306.459 93.699 306.272 93.8823 305.898 93.8823H304.292C303.918 93.8823 303.732 93.699 303.732 93.3691V93.0025H302.237V93.4424C302.237 93.9189 302.424 94.2855 302.76 94.5788C303.096 94.8721 303.545 95.0187 304.105 95.0187H306.235C306.758 95.0187 307.206 94.8721 307.542 94.5788C307.878 94.2855 308.065 93.9189 308.065 93.4424V92.7092C308.065 91.976 307.542 91.4995 306.496 91.3528L304.441 91.0596C304.068 91.0229 303.918 90.8763 303.918 90.6197V90.2531C303.918 89.9232 304.105 89.7399 304.479 89.7399H305.786C306.16 89.7399 306.347 89.9232 306.347 90.2531V90.583H307.841Z" fill="white"/>
<path d="M35.6772 76.3229H30.1481C18.5667 76.3229 9.18945 67.085 9.18945 55.7576C9.18945 44.4301 18.604 35.1922 30.1481 35.1922H35.6772C38.1056 35.1922 40.0857 37.1351 40.0857 39.5179C40.0857 41.9007 38.1056 43.8436 35.6772 43.8436H30.1481C23.4607 43.8436 18.0063 49.1957 18.0063 55.7576C18.0063 62.3194 23.4607 67.6716 30.1481 67.6716H35.6772C38.1056 67.6716 40.0857 69.6144 40.0857 71.9972C40.0857 74.38 38.1056 76.3229 35.6772 76.3229ZM112.413 76.3229C114.842 76.3229 116.822 74.38 116.822 71.9972C116.822 69.6144 114.842 67.6716 112.413 67.6716H101.542C97.8059 67.6716 94.7424 64.6656 94.7424 60.9997V39.5179C94.7424 37.1351 92.7624 35.1922 90.334 35.1922C87.9057 35.1922 85.9256 37.1351 85.9256 39.5179V60.9997C85.9256 69.4678 92.9492 76.3229 101.542 76.3229H112.413ZM61.0443 76.3229C72.6257 76.3229 82.0029 67.085 82.0029 55.7576C82.0029 44.3934 72.5883 35.1922 61.0443 35.1922C49.5002 35.1922 40.0857 44.4301 40.0857 55.7576C40.0857 67.085 49.5002 76.3229 61.0443 76.3229ZM61.0443 43.8436C67.7316 43.8436 73.1861 49.1957 73.1861 55.7576C73.1861 62.3194 67.7316 67.6716 61.0443 67.6716C54.3569 67.6716 48.9025 62.3194 48.9025 55.7576C48.9025 49.1957 54.3569 43.8436 61.0443 43.8436ZM137.818 76.3229C149.399 76.3229 158.776 67.085 158.776 55.7576C158.776 44.3934 149.362 35.1922 137.818 35.1922C126.236 35.1922 116.859 44.4301 116.859 55.7576C116.859 67.085 126.236 76.3229 137.818 76.3229ZM137.818 43.8436C144.505 43.8436 149.96 49.1957 149.96 55.7576C149.96 62.3194 144.505 67.6716 137.818 67.6716C131.13 67.6716 125.676 62.3194 125.676 55.7576C125.676 49.1957 131.13 43.8436 137.818 43.8436ZM224.492 35.1555C216.609 35.1555 209.66 38.968 205.364 44.7967C201.105 38.968 194.118 35.1555 186.236 35.1555C173.272 35.1555 162.699 45.5299 162.699 58.2503V71.9972C162.699 74.38 164.679 76.3229 167.108 76.3229C169.536 76.3229 171.516 74.38 171.516 71.9972V58.287C171.516 50.3321 178.129 43.8436 186.236 43.8436C194.343 43.8436 200.955 50.3321 200.955 58.287V72.0339C200.955 74.4167 202.935 76.3596 205.364 76.3596C207.792 76.3596 209.772 74.4167 209.772 72.0339V58.287C209.772 50.3321 216.385 43.8802 224.492 43.8802C231.963 43.8802 238.128 49.3423 239.062 56.4174L246.197 49.4157C242.648 41.0209 234.242 35.1555 224.492 35.1555Z" fill="#EC008C"/>
<path d="M245.301 39.2246C243.881 39.2246 242.723 38.0882 242.723 36.6951C242.723 35.3021 243.881 34.1657 245.301 34.1657C257.816 34.1657 268.015 24.2313 268.015 12.024C268.015 10.631 269.174 9.49458 270.593 9.49458C272.013 9.49458 273.171 10.631 273.171 12.024C273.208 27.0173 260.693 39.2246 245.301 39.2246ZM261.403 11.2175C261.403 10.2278 260.581 9.42126 259.572 9.42126C258.564 9.42126 257.742 10.2278 257.742 11.2175C257.742 18.3293 251.801 24.158 244.479 24.158C243.47 24.158 242.648 24.9644 242.648 25.9542C242.648 26.944 243.47 27.7505 244.479 27.7505C253.819 27.7138 261.403 20.3088 261.403 11.2175ZM247.206 9.45792C244.703 9.45792 242.686 11.4375 242.686 13.8936C242.686 16.3497 244.703 18.3293 247.206 18.3293C249.709 18.3293 251.727 16.3497 251.727 13.8936C251.764 11.4375 249.709 9.45792 247.206 9.45792Z" fill="#EC008C"/>
<path d="M338.439 76.3229H327.567C318.937 76.3229 311.951 69.4311 311.951 60.9997V39.5178C311.951 37.135 313.931 35.1921 316.36 35.1921C318.788 35.1921 320.768 37.135 320.768 39.5178V60.9997C320.768 64.6655 323.831 67.6715 327.567 67.6715H338.439C340.867 67.6715 342.847 69.6144 342.847 71.9972C342.847 74.38 340.867 76.3229 338.439 76.3229Z" fill="#005BAB"/>
<path d="M267.604 76.3962C265.175 76.3962 263.195 74.4533 263.195 72.0705V39.5545C263.195 37.1717 265.175 35.2288 267.604 35.2288C270.032 35.2288 272.012 37.1717 272.012 39.5545V72.0705C272.012 74.4533 270.032 76.3962 267.604 76.3962Z" fill="#005BAB"/>
<path d="M234.505 76.3963C233.384 76.3963 232.226 75.9564 231.367 75.1133C229.648 73.427 229.648 70.6776 231.367 68.9913L290.918 10.7044C292.636 9.01813 295.438 9.01813 297.157 10.7044C298.875 12.3907 298.875 15.1401 297.157 16.8264L237.606 75.1133C236.747 75.9564 235.626 76.3963 234.505 76.3963Z" fill="#005BAB"/>
<path d="M303.621 76.3229H298.091C286.51 76.3229 277.133 67.085 277.133 55.7575C277.133 44.3934 286.547 35.1921 298.091 35.1921H303.621C306.049 35.1921 308.029 37.135 308.029 39.5178C308.029 41.9006 306.049 43.8435 303.621 43.8435H298.091C291.404 43.8435 285.95 49.1957 285.95 55.7575C285.95 62.3194 291.404 67.6715 298.091 67.6715H303.621C306.049 67.6715 308.029 69.6144 308.029 71.9972C308.029 74.38 306.049 76.3229 303.621 76.3229ZM306.908 55.8308C306.908 53.448 304.928 51.5051 302.5 51.5051H294.206C291.778 51.5051 289.798 53.448 289.798 55.8308C289.798 58.2136 291.778 60.1565 294.206 60.1565H302.5C304.928 60.1565 306.908 58.2136 306.908 55.8308Z" fill="#005BAB"/>
<path d="M336.794 9.45789C337.803 9.45789 338.812 9.71449 339.746 10.2277C340.717 10.7409 341.464 11.4741 341.987 12.4272C342.51 13.3803 342.809 14.3701 342.809 15.3966C342.809 16.423 342.547 17.4128 342.024 18.3292C341.501 19.2823 340.754 20.0155 339.783 20.5287C338.812 21.042 337.84 21.2986 336.794 21.2986C335.748 21.2986 334.739 21.042 333.805 20.5287C332.834 20.0155 332.087 19.2823 331.564 18.3292C331.041 17.3761 330.779 16.423 330.779 15.3966C330.779 14.3701 331.041 13.3803 331.601 12.4272C332.124 11.4741 332.909 10.7409 333.88 10.2277C334.814 9.71449 335.785 9.45789 336.794 9.45789ZM336.794 10.411C335.935 10.411 335.113 10.631 334.328 11.0342C333.544 11.4741 332.909 12.0606 332.46 12.8671C332.012 13.6736 331.788 14.4801 331.788 15.3599C331.788 16.203 332.012 17.0462 332.46 17.816C332.909 18.5858 333.544 19.209 334.328 19.6489C335.113 20.0888 335.972 20.3088 336.831 20.3088C337.691 20.3088 338.55 20.0888 339.335 19.6489C340.119 19.209 340.754 18.5858 341.203 17.816C341.651 17.0462 341.875 16.203 341.875 15.3599C341.875 14.5168 341.651 13.6736 341.203 12.8671C340.754 12.0606 340.119 11.4741 339.335 11.0342C338.475 10.631 337.653 10.411 336.794 10.411ZM334.142 18.6592V12.2806H336.383C337.13 12.2806 337.691 12.3539 338.027 12.4639C338.363 12.5739 338.625 12.7938 338.849 13.0871C339.036 13.3803 339.148 13.6736 339.148 14.0035C339.148 14.4801 338.961 14.8833 338.625 15.2133C338.289 15.5432 337.84 15.7631 337.28 15.7998C337.504 15.9098 337.691 16.0197 337.84 16.1297C338.102 16.3863 338.438 16.7896 338.812 17.3761L339.596 18.6225H338.326L337.765 17.6327C337.317 16.8262 336.944 16.3497 336.682 16.1664C336.495 16.0197 336.196 15.9464 335.86 15.9464H335.262V18.6592H334.142ZM335.188 15.0666H336.458C337.056 15.0666 337.467 14.9933 337.691 14.81C337.915 14.6267 338.027 14.4068 338.027 14.1135C338.027 13.9302 337.99 13.7469 337.878 13.6003C337.765 13.4537 337.616 13.3437 337.429 13.2704C337.242 13.197 336.906 13.1604 336.383 13.1604H335.188V15.0666Z" fill="white"/>
</svg>
